<?xml version="1.0" encoding="utf-8"?>
<!-- Svg Vector Icons : http://www.onlinewebfonts.com/icon -->
<!DOCTYPE svg PUBLIC "-//W3C//DTD SVG 1.1//EN" "http://www.w3.org/Graphics/SVG/1.1/DTD/svg11.dtd">
<svg version="1.1" xmlns="http://www.w3.org/2000/svg" xmlns:xlink="http://www.w3.org/1999/xlink" x="0px" y="0px" viewBox="0 0 1000 1000" enable-background="new 0 0 1000 1000" xml:space="preserve">
<metadata> Svg Vector Icons : http://www.onlinewebfonts.com/icon </metadata>
<g><path d="M500.4,849.3h-97.6l-57.5-216H165.1l-57.5,216H10l203.8-706.5h81.9L500.4,849.3L500.4,849.3z M324.5,555.8l-65.3-249.1h-7.8L186,555.8H324.5L324.5,555.8z"/><path d="M990,849.3h-97.6c-5.2-5.2-9.6-13.1-12.2-22.6s-4.4-20.9-4.4-34.8c-19.2,21.8-41.8,38.3-69.7,48.8c-27,11.3-55.7,16.6-85.4,16.6c-43.6,0-80.1-10.5-110.6-33.1c-29.6-21.8-45.3-53.1-45.3-94.1s13.9-73.2,40.9-97.6c27-24.4,69.7-40.9,126.3-48.8c38.3-5.2,71.4-12.2,100.2-20c28.7-7.8,42.7-19.2,42.7-33.1c0-16.6-6.1-33.1-18.3-48.8c-12.2-15.7-39.2-24.4-79.3-24.4c-33.1,0-56.6,6.1-71.4,18.3c-14.8,12.2-25.3,29.6-30.5,51.4h-89.7c5.2-43.6,25.3-78.4,59.2-104.5s78.4-39.2,132.4-39.2c60.1,0,104.5,13.9,135,40.9c29.6,27,45.3,65.3,45.3,114.1v224.7c0,16.6,2.6,31.4,7.8,45.3C970.8,822.3,979.5,836.3,990,849.3L990,849.3z M875.9,698.6v-81.9c-16.5,5.2-32.2,10.5-47,13.9c-14.8,4.4-40.1,8.7-75.8,13.9c-40.9,5.2-67.1,14.8-79.3,28.7c-12.2,13.9-18.3,29.6-18.3,48.8c0,16.6,6.1,30.5,18.3,42.7c12.2,12.2,30.5,18.3,54.9,18.3s51.4-7,79.3-20C836.7,750,859.3,728.2,875.9,698.6L875.9,698.6z"/></g>
</svg>