<svg xmlns="http://www.w3.org/2000/svg" xmlns:xlink="http://www.w3.org/1999/xlink" version="1.1" width="256" height="256" viewBox="0 0 256 256" xml:space="preserve">
<desc>Created with Fabric.js 1.7.22</desc>
<defs>
</defs>
<g transform="translate(128 128) scale(0.72 0.72)" style="">
	<g style="stroke: none; stroke-width: 0; stroke-dasharray: none; stroke-linecap: butt; stroke-linejoin: miter; stroke-miterlimit: 10; fill: none; fill-rule: nonzero; opacity: 1;" transform="translate(-175.05 -175.05000000000004) scale(3.89 3.89)" >
	<path d="M 90 45 C 90 20.187 69.813 0 45 0 C 20.187 0 0 20.187 0 45 c 0 24.813 20.187 45 45 45 C 69.813 90 90 69.813 90 45 z M 10 45 c 0 -19.299 15.701 -35 35 -35 s 35 15.701 35 35 S 64.299 80 45 80 S 10 64.299 10 45 z" style="stroke: none; stroke-width: 1; stroke-dasharray: none; stroke-linecap: butt; stroke-linejoin: miter; stroke-miterlimit: 10; fill: rgb(0,0,0); fill-rule: nonzero; opacity: 1;" transform=" matrix(1 0 0 1 0 0) " stroke-linecap="round" />
	<path d="M 49.926 62.777 V 27.222 c 0 -2.761 -2.238 -5 -5 -5 s -5 2.239 -5 5 v 35.555 c 0 2.762 2.239 5 5 5 S 49.926 65.539 49.926 62.777 z" style="stroke: none; stroke-width: 1; stroke-dasharray: none; stroke-linecap: butt; stroke-linejoin: miter; stroke-miterlimit: 10; fill: rgb(0,0,0); fill-rule: nonzero; opacity: 1;" transform=" matrix(1 0 0 1 0 0) " stroke-linecap="round" />
	<path d="M 63.896 48.882 c 0 -1.279 -0.488 -2.559 -1.464 -3.536 c -1.953 -1.953 -5.119 -1.953 -7.071 0 L 45 55.706 l -10.361 -10.36 c -1.953 -1.953 -5.119 -1.953 -7.071 0 c -1.952 1.953 -1.952 5.119 0 7.072 l 13.896 13.896 c 1.953 1.952 5.119 1.952 7.071 0 l 13.896 -13.896 C 63.408 51.441 63.896 50.161 63.896 48.882 z" style="stroke: none; stroke-width: 1; stroke-dasharray: none; stroke-linecap: butt; stroke-linejoin: miter; stroke-miterlimit: 10; fill: rgb(0,0,0); fill-rule: nonzero; opacity: 1;" transform=" matrix(1 0 0 1 0 0) " stroke-linecap="round" />
</g>
</g>
</svg>